<mxfile host="app.diagrams.net" modified="2023-12-17T18:04:49.358Z" agent="Mozilla/5.0 (Windows NT 10.0; Win64; x64) AppleWebKit/537.36 (KHTML, like Gecko) Chrome/120.0.0.0 Safari/537.36 Edg/120.0.0.0" etag="4Czv5JyWOi9UBrSWh-ql" version="21.6.9" type="google">
  <diagram id="R2lEEEUBdFMjLlhIrx00" name="Page-1">
    <mxGraphModel grid="1" page="1" gridSize="10" guides="1" tooltips="1" connect="1" arrows="1" fold="1" pageScale="1" pageWidth="850" pageHeight="1100" math="0" shadow="0" extFonts="Permanent Marker^https://fonts.googleapis.com/css?family=Permanent+Marker">
      <root>
        <mxCell id="0" />
        <mxCell id="1" parent="0" />
        <mxCell id="Oqu5rdw-iT1-wfg9vqZg-287" value="Enrollment" style="shape=table;startSize=30;container=1;collapsible=1;childLayout=tableLayout;fixedRows=1;rowLines=0;fontStyle=1;align=center;resizeLast=1;" vertex="1" parent="1">
          <mxGeometry x="490" y="430" width="250" height="200" as="geometry" />
        </mxCell>
        <mxCell id="Oqu5rdw-iT1-wfg9vqZg-288" value="" style="shape=partialRectangle;collapsible=0;dropTarget=0;pointerEvents=0;fillColor=none;points=[[0,0.5],[1,0.5]];portConstraint=eastwest;top=0;left=0;right=0;bottom=1;" vertex="1" parent="Oqu5rdw-iT1-wfg9vqZg-287">
          <mxGeometry y="30" width="250" height="30" as="geometry" />
        </mxCell>
        <mxCell id="Oqu5rdw-iT1-wfg9vqZg-289" value="PK" style="shape=partialRectangle;overflow=hidden;connectable=0;fillColor=none;top=0;left=0;bottom=0;right=0;fontStyle=1;" vertex="1" parent="Oqu5rdw-iT1-wfg9vqZg-288">
          <mxGeometry width="30" height="30" as="geometry">
            <mxRectangle width="30" height="30" as="alternateBounds" />
          </mxGeometry>
        </mxCell>
        <mxCell id="Oqu5rdw-iT1-wfg9vqZg-290" value="enrollment_id INT NOT NULL " style="shape=partialRectangle;overflow=hidden;connectable=0;fillColor=none;top=0;left=0;bottom=0;right=0;align=left;spacingLeft=6;fontStyle=5;" vertex="1" parent="Oqu5rdw-iT1-wfg9vqZg-288">
          <mxGeometry x="30" width="220" height="30" as="geometry">
            <mxRectangle width="220" height="30" as="alternateBounds" />
          </mxGeometry>
        </mxCell>
        <mxCell id="Oqu5rdw-iT1-wfg9vqZg-291" value="" style="shape=partialRectangle;collapsible=0;dropTarget=0;pointerEvents=0;fillColor=none;points=[[0,0.5],[1,0.5]];portConstraint=eastwest;top=0;left=0;right=0;bottom=0;" vertex="1" parent="Oqu5rdw-iT1-wfg9vqZg-287">
          <mxGeometry y="60" width="250" height="30" as="geometry" />
        </mxCell>
        <mxCell id="Oqu5rdw-iT1-wfg9vqZg-292" value="FK1" style="shape=partialRectangle;overflow=hidden;connectable=0;fillColor=none;top=0;left=0;bottom=0;right=0;" vertex="1" parent="Oqu5rdw-iT1-wfg9vqZg-291">
          <mxGeometry width="30" height="30" as="geometry">
            <mxRectangle width="30" height="30" as="alternateBounds" />
          </mxGeometry>
        </mxCell>
        <mxCell id="Oqu5rdw-iT1-wfg9vqZg-293" value="user_id INT NOT NULL" style="shape=partialRectangle;overflow=hidden;connectable=0;fillColor=none;top=0;left=0;bottom=0;right=0;align=left;spacingLeft=6;" vertex="1" parent="Oqu5rdw-iT1-wfg9vqZg-291">
          <mxGeometry x="30" width="220" height="30" as="geometry">
            <mxRectangle width="220" height="30" as="alternateBounds" />
          </mxGeometry>
        </mxCell>
        <mxCell id="Oqu5rdw-iT1-wfg9vqZg-294" value="" style="shape=partialRectangle;collapsible=0;dropTarget=0;pointerEvents=0;fillColor=none;points=[[0,0.5],[1,0.5]];portConstraint=eastwest;top=0;left=0;right=0;bottom=0;" vertex="1" parent="Oqu5rdw-iT1-wfg9vqZg-287">
          <mxGeometry y="90" width="250" height="30" as="geometry" />
        </mxCell>
        <mxCell id="Oqu5rdw-iT1-wfg9vqZg-295" value="FK2" style="shape=partialRectangle;overflow=hidden;connectable=0;fillColor=none;top=0;left=0;bottom=0;right=0;" vertex="1" parent="Oqu5rdw-iT1-wfg9vqZg-294">
          <mxGeometry width="30" height="30" as="geometry">
            <mxRectangle width="30" height="30" as="alternateBounds" />
          </mxGeometry>
        </mxCell>
        <mxCell id="Oqu5rdw-iT1-wfg9vqZg-296" value="batch_id INT  NOT NULL" style="shape=partialRectangle;overflow=hidden;connectable=0;fillColor=none;top=0;left=0;bottom=0;right=0;align=left;spacingLeft=6;" vertex="1" parent="Oqu5rdw-iT1-wfg9vqZg-294">
          <mxGeometry x="30" width="220" height="30" as="geometry">
            <mxRectangle width="220" height="30" as="alternateBounds" />
          </mxGeometry>
        </mxCell>
        <mxCell id="Oqu5rdw-iT1-wfg9vqZg-297" value="Batch" style="shape=table;startSize=30;container=1;collapsible=1;childLayout=tableLayout;fixedRows=1;rowLines=0;fontStyle=1;align=center;resizeLast=1;" vertex="1" parent="1">
          <mxGeometry x="480" y="690" width="250" height="130" as="geometry" />
        </mxCell>
        <mxCell id="Oqu5rdw-iT1-wfg9vqZg-298" value="" style="shape=partialRectangle;collapsible=0;dropTarget=0;pointerEvents=0;fillColor=none;points=[[0,0.5],[1,0.5]];portConstraint=eastwest;top=0;left=0;right=0;bottom=1;" vertex="1" parent="Oqu5rdw-iT1-wfg9vqZg-297">
          <mxGeometry y="30" width="250" height="30" as="geometry" />
        </mxCell>
        <mxCell id="Oqu5rdw-iT1-wfg9vqZg-299" value="PK" style="shape=partialRectangle;overflow=hidden;connectable=0;fillColor=none;top=0;left=0;bottom=0;right=0;fontStyle=1;" vertex="1" parent="Oqu5rdw-iT1-wfg9vqZg-298">
          <mxGeometry width="30" height="30" as="geometry">
            <mxRectangle width="30" height="30" as="alternateBounds" />
          </mxGeometry>
        </mxCell>
        <mxCell id="Oqu5rdw-iT1-wfg9vqZg-300" value="batch_id int NOT NULL " style="shape=partialRectangle;overflow=hidden;connectable=0;fillColor=none;top=0;left=0;bottom=0;right=0;align=left;spacingLeft=6;fontStyle=5;" vertex="1" parent="Oqu5rdw-iT1-wfg9vqZg-298">
          <mxGeometry x="30" width="220" height="30" as="geometry">
            <mxRectangle width="220" height="30" as="alternateBounds" />
          </mxGeometry>
        </mxCell>
        <mxCell id="Oqu5rdw-iT1-wfg9vqZg-301" value="" style="shape=partialRectangle;collapsible=0;dropTarget=0;pointerEvents=0;fillColor=none;points=[[0,0.5],[1,0.5]];portConstraint=eastwest;top=0;left=0;right=0;bottom=0;" vertex="1" parent="Oqu5rdw-iT1-wfg9vqZg-297">
          <mxGeometry y="60" width="250" height="30" as="geometry" />
        </mxCell>
        <mxCell id="Oqu5rdw-iT1-wfg9vqZg-302" value="" style="shape=partialRectangle;overflow=hidden;connectable=0;fillColor=none;top=0;left=0;bottom=0;right=0;" vertex="1" parent="Oqu5rdw-iT1-wfg9vqZg-301">
          <mxGeometry width="30" height="30" as="geometry">
            <mxRectangle width="30" height="30" as="alternateBounds" />
          </mxGeometry>
        </mxCell>
        <mxCell id="Oqu5rdw-iT1-wfg9vqZg-303" value="StartTime TIME" style="shape=partialRectangle;overflow=hidden;connectable=0;fillColor=none;top=0;left=0;bottom=0;right=0;align=left;spacingLeft=6;" vertex="1" parent="Oqu5rdw-iT1-wfg9vqZg-301">
          <mxGeometry x="30" width="220" height="30" as="geometry">
            <mxRectangle width="220" height="30" as="alternateBounds" />
          </mxGeometry>
        </mxCell>
        <mxCell id="Oqu5rdw-iT1-wfg9vqZg-304" value="" style="shape=partialRectangle;collapsible=0;dropTarget=0;pointerEvents=0;fillColor=none;points=[[0,0.5],[1,0.5]];portConstraint=eastwest;top=0;left=0;right=0;bottom=0;" vertex="1" parent="Oqu5rdw-iT1-wfg9vqZg-297">
          <mxGeometry y="90" width="250" height="30" as="geometry" />
        </mxCell>
        <mxCell id="Oqu5rdw-iT1-wfg9vqZg-305" value="" style="shape=partialRectangle;overflow=hidden;connectable=0;fillColor=none;top=0;left=0;bottom=0;right=0;" vertex="1" parent="Oqu5rdw-iT1-wfg9vqZg-304">
          <mxGeometry width="30" height="30" as="geometry">
            <mxRectangle width="30" height="30" as="alternateBounds" />
          </mxGeometry>
        </mxCell>
        <mxCell id="Oqu5rdw-iT1-wfg9vqZg-306" value="EndTime TIME" style="shape=partialRectangle;overflow=hidden;connectable=0;fillColor=none;top=0;left=0;bottom=0;right=0;align=left;spacingLeft=6;" vertex="1" parent="Oqu5rdw-iT1-wfg9vqZg-304">
          <mxGeometry x="30" width="220" height="30" as="geometry">
            <mxRectangle width="220" height="30" as="alternateBounds" />
          </mxGeometry>
        </mxCell>
        <mxCell id="Oqu5rdw-iT1-wfg9vqZg-307" value="User" style="shape=table;startSize=30;container=1;collapsible=1;childLayout=tableLayout;fixedRows=1;rowLines=0;fontStyle=1;align=center;resizeLast=1;" vertex="1" parent="1">
          <mxGeometry x="100" y="390" width="270" height="130" as="geometry" />
        </mxCell>
        <mxCell id="Oqu5rdw-iT1-wfg9vqZg-308" value="" style="shape=partialRectangle;collapsible=0;dropTarget=0;pointerEvents=0;fillColor=none;points=[[0,0.5],[1,0.5]];portConstraint=eastwest;top=0;left=0;right=0;bottom=1;" vertex="1" parent="Oqu5rdw-iT1-wfg9vqZg-307">
          <mxGeometry y="30" width="270" height="30" as="geometry" />
        </mxCell>
        <mxCell id="Oqu5rdw-iT1-wfg9vqZg-309" value="PK" style="shape=partialRectangle;overflow=hidden;connectable=0;fillColor=none;top=0;left=0;bottom=0;right=0;fontStyle=1;" vertex="1" parent="Oqu5rdw-iT1-wfg9vqZg-308">
          <mxGeometry width="30" height="30" as="geometry">
            <mxRectangle width="30" height="30" as="alternateBounds" />
          </mxGeometry>
        </mxCell>
        <mxCell id="Oqu5rdw-iT1-wfg9vqZg-310" value="user_id INT NOT NULL " style="shape=partialRectangle;overflow=hidden;connectable=0;fillColor=none;top=0;left=0;bottom=0;right=0;align=left;spacingLeft=6;fontStyle=5;" vertex="1" parent="Oqu5rdw-iT1-wfg9vqZg-308">
          <mxGeometry x="30" width="240" height="30" as="geometry">
            <mxRectangle width="240" height="30" as="alternateBounds" />
          </mxGeometry>
        </mxCell>
        <mxCell id="Oqu5rdw-iT1-wfg9vqZg-311" value="" style="shape=partialRectangle;collapsible=0;dropTarget=0;pointerEvents=0;fillColor=none;points=[[0,0.5],[1,0.5]];portConstraint=eastwest;top=0;left=0;right=0;bottom=0;" vertex="1" parent="Oqu5rdw-iT1-wfg9vqZg-307">
          <mxGeometry y="60" width="270" height="30" as="geometry" />
        </mxCell>
        <mxCell id="Oqu5rdw-iT1-wfg9vqZg-312" value="" style="shape=partialRectangle;overflow=hidden;connectable=0;fillColor=none;top=0;left=0;bottom=0;right=0;" vertex="1" parent="Oqu5rdw-iT1-wfg9vqZg-311">
          <mxGeometry width="30" height="30" as="geometry">
            <mxRectangle width="30" height="30" as="alternateBounds" />
          </mxGeometry>
        </mxCell>
        <mxCell id="Oqu5rdw-iT1-wfg9vqZg-313" value="user_name VARCHAR(255) NOT NULL" style="shape=partialRectangle;overflow=hidden;connectable=0;fillColor=none;top=0;left=0;bottom=0;right=0;align=left;spacingLeft=6;" vertex="1" parent="Oqu5rdw-iT1-wfg9vqZg-311">
          <mxGeometry x="30" width="240" height="30" as="geometry">
            <mxRectangle width="240" height="30" as="alternateBounds" />
          </mxGeometry>
        </mxCell>
        <mxCell id="Oqu5rdw-iT1-wfg9vqZg-314" value="EnrollmentDate DATE" style="shape=partialRectangle;overflow=hidden;connectable=0;fillColor=none;top=0;left=0;bottom=0;right=0;align=left;spacingLeft=6;" vertex="1" parent="1">
          <mxGeometry x="520" y="550" width="220" height="30" as="geometry">
            <mxRectangle width="220" height="30" as="alternateBounds" />
          </mxGeometry>
        </mxCell>
        <mxCell id="Oqu5rdw-iT1-wfg9vqZg-315" value="Status varchar(50)" style="shape=partialRectangle;overflow=hidden;connectable=0;fillColor=none;top=0;left=0;bottom=0;right=0;align=left;spacingLeft=6;" vertex="1" parent="1">
          <mxGeometry x="520" y="580" width="220" height="30" as="geometry">
            <mxRectangle width="220" height="30" as="alternateBounds" />
          </mxGeometry>
        </mxCell>
        <mxCell id="Oqu5rdw-iT1-wfg9vqZg-316" value="Payment" style="shape=table;startSize=30;container=1;collapsible=1;childLayout=tableLayout;fixedRows=1;rowLines=0;fontStyle=1;align=center;resizeLast=1;" vertex="1" parent="1">
          <mxGeometry x="150" y="630" width="250" height="170" as="geometry" />
        </mxCell>
        <mxCell id="Oqu5rdw-iT1-wfg9vqZg-317" value="" style="shape=partialRectangle;collapsible=0;dropTarget=0;pointerEvents=0;fillColor=none;points=[[0,0.5],[1,0.5]];portConstraint=eastwest;top=0;left=0;right=0;bottom=1;" vertex="1" parent="Oqu5rdw-iT1-wfg9vqZg-316">
          <mxGeometry y="30" width="250" height="30" as="geometry" />
        </mxCell>
        <mxCell id="Oqu5rdw-iT1-wfg9vqZg-318" value="PK" style="shape=partialRectangle;overflow=hidden;connectable=0;fillColor=none;top=0;left=0;bottom=0;right=0;fontStyle=1;" vertex="1" parent="Oqu5rdw-iT1-wfg9vqZg-317">
          <mxGeometry width="30" height="30" as="geometry">
            <mxRectangle width="30" height="30" as="alternateBounds" />
          </mxGeometry>
        </mxCell>
        <mxCell id="Oqu5rdw-iT1-wfg9vqZg-319" value="payment_id INT NOT NULL " style="shape=partialRectangle;overflow=hidden;connectable=0;fillColor=none;top=0;left=0;bottom=0;right=0;align=left;spacingLeft=6;fontStyle=5;" vertex="1" parent="Oqu5rdw-iT1-wfg9vqZg-317">
          <mxGeometry x="30" width="220" height="30" as="geometry">
            <mxRectangle width="220" height="30" as="alternateBounds" />
          </mxGeometry>
        </mxCell>
        <mxCell id="Oqu5rdw-iT1-wfg9vqZg-320" value="" style="shape=partialRectangle;collapsible=0;dropTarget=0;pointerEvents=0;fillColor=none;points=[[0,0.5],[1,0.5]];portConstraint=eastwest;top=0;left=0;right=0;bottom=0;" vertex="1" parent="Oqu5rdw-iT1-wfg9vqZg-316">
          <mxGeometry y="60" width="250" height="30" as="geometry" />
        </mxCell>
        <mxCell id="Oqu5rdw-iT1-wfg9vqZg-321" value="FK1" style="shape=partialRectangle;overflow=hidden;connectable=0;fillColor=none;top=0;left=0;bottom=0;right=0;" vertex="1" parent="Oqu5rdw-iT1-wfg9vqZg-320">
          <mxGeometry width="30" height="30" as="geometry">
            <mxRectangle width="30" height="30" as="alternateBounds" />
          </mxGeometry>
        </mxCell>
        <mxCell id="Oqu5rdw-iT1-wfg9vqZg-322" value="user_id INT NOT NULL" style="shape=partialRectangle;overflow=hidden;connectable=0;fillColor=none;top=0;left=0;bottom=0;right=0;align=left;spacingLeft=6;" vertex="1" parent="Oqu5rdw-iT1-wfg9vqZg-320">
          <mxGeometry x="30" width="220" height="30" as="geometry">
            <mxRectangle width="220" height="30" as="alternateBounds" />
          </mxGeometry>
        </mxCell>
        <mxCell id="Oqu5rdw-iT1-wfg9vqZg-323" value="" style="shape=partialRectangle;collapsible=0;dropTarget=0;pointerEvents=0;fillColor=none;points=[[0,0.5],[1,0.5]];portConstraint=eastwest;top=0;left=0;right=0;bottom=0;" vertex="1" parent="Oqu5rdw-iT1-wfg9vqZg-316">
          <mxGeometry y="90" width="250" height="30" as="geometry" />
        </mxCell>
        <mxCell id="Oqu5rdw-iT1-wfg9vqZg-324" value="" style="shape=partialRectangle;overflow=hidden;connectable=0;fillColor=none;top=0;left=0;bottom=0;right=0;" vertex="1" parent="Oqu5rdw-iT1-wfg9vqZg-323">
          <mxGeometry width="30" height="30" as="geometry">
            <mxRectangle width="30" height="30" as="alternateBounds" />
          </mxGeometry>
        </mxCell>
        <mxCell id="Oqu5rdw-iT1-wfg9vqZg-325" value="PaymnetDate DATE " style="shape=partialRectangle;overflow=hidden;connectable=0;fillColor=none;top=0;left=0;bottom=0;right=0;align=left;spacingLeft=6;" vertex="1" parent="Oqu5rdw-iT1-wfg9vqZg-323">
          <mxGeometry x="30" width="220" height="30" as="geometry">
            <mxRectangle width="220" height="30" as="alternateBounds" />
          </mxGeometry>
        </mxCell>
        <mxCell id="Oqu5rdw-iT1-wfg9vqZg-326" value="" style="shape=partialRectangle;collapsible=0;dropTarget=0;pointerEvents=0;fillColor=none;points=[[0,0.5],[1,0.5]];portConstraint=eastwest;top=0;left=0;right=0;bottom=0;" vertex="1" parent="1">
          <mxGeometry x="150" y="750" width="250" height="30" as="geometry" />
        </mxCell>
        <mxCell id="Oqu5rdw-iT1-wfg9vqZg-327" value="" style="shape=partialRectangle;overflow=hidden;connectable=0;fillColor=none;top=0;left=0;bottom=0;right=0;" vertex="1" parent="Oqu5rdw-iT1-wfg9vqZg-326">
          <mxGeometry width="30" height="30" as="geometry">
            <mxRectangle width="30" height="30" as="alternateBounds" />
          </mxGeometry>
        </mxCell>
        <mxCell id="Oqu5rdw-iT1-wfg9vqZg-328" value="Amount DECIMAL(10,2) NOT NULL" style="shape=partialRectangle;overflow=hidden;connectable=0;fillColor=none;top=0;left=0;bottom=0;right=0;align=left;spacingLeft=6;" vertex="1" parent="Oqu5rdw-iT1-wfg9vqZg-326">
          <mxGeometry x="30" width="220" height="30" as="geometry">
            <mxRectangle width="220" height="30" as="alternateBounds" />
          </mxGeometry>
        </mxCell>
        <mxCell id="Oqu5rdw-iT1-wfg9vqZg-329" value="" style="edgeStyle=entityRelationEdgeStyle;fontSize=12;html=1;endArrow=ERoneToMany;rounded=0;" edge="1" parent="1" source="Oqu5rdw-iT1-wfg9vqZg-297">
          <mxGeometry width="100" height="100" relative="1" as="geometry">
            <mxPoint x="455" y="710" as="sourcePoint" />
            <mxPoint x="490" y="570" as="targetPoint" />
            <Array as="points">
              <mxPoint x="550" y="680" />
            </Array>
          </mxGeometry>
        </mxCell>
        <mxCell id="Oqu5rdw-iT1-wfg9vqZg-330" value="Includes" style="edgeLabel;html=1;align=center;verticalAlign=middle;resizable=0;points=[];" connectable="0" vertex="1" parent="Oqu5rdw-iT1-wfg9vqZg-329">
          <mxGeometry x="-0.6458" y="3" relative="1" as="geometry">
            <mxPoint as="offset" />
          </mxGeometry>
        </mxCell>
        <mxCell id="Oqu5rdw-iT1-wfg9vqZg-331" value="" style="edgeStyle=entityRelationEdgeStyle;fontSize=12;html=1;endArrow=ERoneToMany;rounded=0;entryX=0;entryY=0.5;entryDx=0;entryDy=0;exitX=1;exitY=0.5;exitDx=0;exitDy=0;" edge="1" parent="1">
          <mxGeometry width="100" height="100" relative="1" as="geometry">
            <mxPoint x="374" y="475" as="sourcePoint" />
            <mxPoint x="494" y="505" as="targetPoint" />
            <Array as="points">
              <mxPoint x="214" y="410" />
            </Array>
          </mxGeometry>
        </mxCell>
        <mxCell id="Oqu5rdw-iT1-wfg9vqZg-332" value="EnrollsIn" style="edgeLabel;html=1;align=center;verticalAlign=middle;resizable=0;points=[];" connectable="0" vertex="1" parent="Oqu5rdw-iT1-wfg9vqZg-331">
          <mxGeometry x="0.0603" relative="1" as="geometry">
            <mxPoint as="offset" />
          </mxGeometry>
        </mxCell>
        <mxCell id="Oqu5rdw-iT1-wfg9vqZg-333" value="Age INT" style="shape=partialRectangle;overflow=hidden;connectable=0;fillColor=none;top=0;left=0;bottom=0;right=0;align=left;spacingLeft=6;" vertex="1" parent="1">
          <mxGeometry x="130" y="480" width="240" height="30" as="geometry">
            <mxRectangle width="240" height="30" as="alternateBounds" />
          </mxGeometry>
        </mxCell>
        <mxCell id="Oqu5rdw-iT1-wfg9vqZg-334" value="" style="line;strokeWidth=1;rotatable=0;dashed=0;labelPosition=right;align=left;verticalAlign=middle;spacingTop=0;spacingLeft=6;points=[];portConstraint=eastwest;" vertex="1" parent="1">
          <mxGeometry x="70" y="570" width="100" as="geometry" />
        </mxCell>
        <mxCell id="Oqu5rdw-iT1-wfg9vqZg-335" value="" style="endArrow=none;html=1;rounded=0;" edge="1" parent="1">
          <mxGeometry width="50" height="50" relative="1" as="geometry">
            <mxPoint x="130" y="480" as="sourcePoint" />
            <mxPoint x="130" y="520" as="targetPoint" />
          </mxGeometry>
        </mxCell>
        <mxCell id="Oqu5rdw-iT1-wfg9vqZg-336" value="" style="endArrow=none;html=1;rounded=0;" edge="1" parent="1">
          <mxGeometry width="50" height="50" relative="1" as="geometry">
            <mxPoint x="180" y="750" as="sourcePoint" />
            <mxPoint x="180" y="800" as="targetPoint" />
          </mxGeometry>
        </mxCell>
        <mxCell id="Oqu5rdw-iT1-wfg9vqZg-337" value="" style="endArrow=none;html=1;rounded=0;" edge="1" parent="1">
          <mxGeometry width="50" height="50" relative="1" as="geometry">
            <mxPoint x="520" y="550" as="sourcePoint" />
            <mxPoint x="520" y="630" as="targetPoint" />
          </mxGeometry>
        </mxCell>
        <mxCell id="Oqu5rdw-iT1-wfg9vqZg-338" value="" style="edgeStyle=entityRelationEdgeStyle;fontSize=12;html=1;endArrow=ERmandOne;startArrow=ERmandOne;rounded=0;" edge="1" parent="1">
          <mxGeometry width="100" height="100" relative="1" as="geometry">
            <mxPoint x="400" y="690" as="sourcePoint" />
            <mxPoint x="100" y="500" as="targetPoint" />
          </mxGeometry>
        </mxCell>
        <mxCell id="Oqu5rdw-iT1-wfg9vqZg-339" value="MakesPayment" style="edgeLabel;html=1;align=center;verticalAlign=middle;resizable=0;points=[];" connectable="0" vertex="1" parent="1">
          <mxGeometry x="220" y="529.9963636363635" as="geometry">
            <mxPoint x="8" y="67" as="offset" />
          </mxGeometry>
        </mxCell>
        <mxCell id="Oqu5rdw-iT1-wfg9vqZg-340" value="User" style="whiteSpace=wrap;html=1;align=center;" vertex="1" parent="1">
          <mxGeometry x="1080" y="380" width="100" height="40" as="geometry" />
        </mxCell>
        <mxCell id="Oqu5rdw-iT1-wfg9vqZg-341" value="Batch" style="whiteSpace=wrap;html=1;align=center;" vertex="1" parent="1">
          <mxGeometry x="1380" y="570" width="100" height="40" as="geometry" />
        </mxCell>
        <mxCell id="Oqu5rdw-iT1-wfg9vqZg-342" value="Payment" style="whiteSpace=wrap;html=1;align=center;" vertex="1" parent="1">
          <mxGeometry x="1080" y="575" width="100" height="40" as="geometry" />
        </mxCell>
        <mxCell id="Oqu5rdw-iT1-wfg9vqZg-343" value="Enrollment" style="whiteSpace=wrap;html=1;align=center;" vertex="1" parent="1">
          <mxGeometry x="1380" y="380" width="100" height="40" as="geometry" />
        </mxCell>
        <mxCell id="Oqu5rdw-iT1-wfg9vqZg-344" value="Age" style="ellipse;whiteSpace=wrap;html=1;align=center;" vertex="1" parent="1">
          <mxGeometry x="930" y="380" width="100" height="40" as="geometry" />
        </mxCell>
        <mxCell id="Oqu5rdw-iT1-wfg9vqZg-345" value="user_name" style="ellipse;whiteSpace=wrap;html=1;align=center;" vertex="1" parent="1">
          <mxGeometry x="1110" y="290" width="100" height="40" as="geometry" />
        </mxCell>
        <mxCell id="Oqu5rdw-iT1-wfg9vqZg-346" value="user_id" style="ellipse;whiteSpace=wrap;html=1;align=center;fontStyle=4;" vertex="1" parent="1">
          <mxGeometry x="980" y="310" width="100" height="40" as="geometry" />
        </mxCell>
        <mxCell id="Oqu5rdw-iT1-wfg9vqZg-347" value="payment_id" style="ellipse;whiteSpace=wrap;html=1;align=center;fontStyle=4;" vertex="1" parent="1">
          <mxGeometry x="1080" y="690" width="100" height="40" as="geometry" />
        </mxCell>
        <mxCell id="Oqu5rdw-iT1-wfg9vqZg-348" value="batch_id" style="ellipse;whiteSpace=wrap;html=1;align=center;fontStyle=4;" vertex="1" parent="1">
          <mxGeometry x="1530" y="535" width="100" height="40" as="geometry" />
        </mxCell>
        <mxCell id="Oqu5rdw-iT1-wfg9vqZg-349" value="enrollment_id" style="ellipse;whiteSpace=wrap;html=1;align=center;fontStyle=4;" vertex="1" parent="1">
          <mxGeometry x="1540" y="400" width="100" height="40" as="geometry" />
        </mxCell>
        <mxCell id="Oqu5rdw-iT1-wfg9vqZg-350" value="StartTime" style="ellipse;whiteSpace=wrap;html=1;align=center;" vertex="1" parent="1">
          <mxGeometry x="1510" y="640" width="100" height="40" as="geometry" />
        </mxCell>
        <mxCell id="Oqu5rdw-iT1-wfg9vqZg-351" value="Status" style="ellipse;whiteSpace=wrap;html=1;align=center;" vertex="1" parent="1">
          <mxGeometry x="1510" y="320" width="100" height="40" as="geometry" />
        </mxCell>
        <mxCell id="Oqu5rdw-iT1-wfg9vqZg-352" value="EnrollmentDate" style="ellipse;whiteSpace=wrap;html=1;align=center;" vertex="1" parent="1">
          <mxGeometry x="1370" y="290" width="100" height="40" as="geometry" />
        </mxCell>
        <mxCell id="Oqu5rdw-iT1-wfg9vqZg-353" value="EndTime" style="ellipse;whiteSpace=wrap;html=1;align=center;" vertex="1" parent="1">
          <mxGeometry x="1380" y="670" width="100" height="40" as="geometry" />
        </mxCell>
        <mxCell id="Oqu5rdw-iT1-wfg9vqZg-354" value="Amount" style="ellipse;whiteSpace=wrap;html=1;align=center;" vertex="1" parent="1">
          <mxGeometry x="930" y="650" width="100" height="40" as="geometry" />
        </mxCell>
        <mxCell id="Oqu5rdw-iT1-wfg9vqZg-355" value="PaymentDate" style="ellipse;whiteSpace=wrap;html=1;align=center;" vertex="1" parent="1">
          <mxGeometry x="920" y="550" width="100" height="40" as="geometry" />
        </mxCell>
        <mxCell id="Oqu5rdw-iT1-wfg9vqZg-361" value="" style="endArrow=none;html=1;rounded=0;entryX=0.5;entryY=1;entryDx=0;entryDy=0;" edge="1" parent="1" target="Oqu5rdw-iT1-wfg9vqZg-345">
          <mxGeometry width="50" height="50" relative="1" as="geometry">
            <mxPoint x="1135" y="380" as="sourcePoint" />
            <mxPoint x="1185" y="330" as="targetPoint" />
          </mxGeometry>
        </mxCell>
        <mxCell id="Oqu5rdw-iT1-wfg9vqZg-362" value="" style="endArrow=none;html=1;rounded=0;entryX=1;entryY=1;entryDx=0;entryDy=0;exitX=0.25;exitY=0;exitDx=0;exitDy=0;" edge="1" parent="1" source="Oqu5rdw-iT1-wfg9vqZg-340" target="Oqu5rdw-iT1-wfg9vqZg-346">
          <mxGeometry width="50" height="50" relative="1" as="geometry">
            <mxPoint x="1140" y="380" as="sourcePoint" />
            <mxPoint x="1170" y="340" as="targetPoint" />
          </mxGeometry>
        </mxCell>
        <mxCell id="Oqu5rdw-iT1-wfg9vqZg-363" value="" style="endArrow=none;html=1;rounded=0;entryX=1;entryY=0;entryDx=0;entryDy=0;exitX=0;exitY=0.5;exitDx=0;exitDy=0;" edge="1" parent="1" source="Oqu5rdw-iT1-wfg9vqZg-340" target="Oqu5rdw-iT1-wfg9vqZg-344">
          <mxGeometry width="50" height="50" relative="1" as="geometry">
            <mxPoint x="1130" y="380" as="sourcePoint" />
            <mxPoint x="1172.5" y="330" as="targetPoint" />
          </mxGeometry>
        </mxCell>
        <mxCell id="Oqu5rdw-iT1-wfg9vqZg-364" value="" style="endArrow=none;html=1;rounded=0;entryX=0;entryY=1;entryDx=0;entryDy=0;exitX=1;exitY=0;exitDx=0;exitDy=0;" edge="1" parent="1" source="Oqu5rdw-iT1-wfg9vqZg-343" target="Oqu5rdw-iT1-wfg9vqZg-351">
          <mxGeometry width="50" height="50" relative="1" as="geometry">
            <mxPoint x="1480" y="400" as="sourcePoint" />
            <mxPoint x="1505" y="350" as="targetPoint" />
          </mxGeometry>
        </mxCell>
        <mxCell id="Oqu5rdw-iT1-wfg9vqZg-365" value="" style="endArrow=none;html=1;rounded=0;entryX=0.5;entryY=1;entryDx=0;entryDy=0;exitX=0.67;exitY=-0.02;exitDx=0;exitDy=0;exitPerimeter=0;" edge="1" parent="1" source="Oqu5rdw-iT1-wfg9vqZg-343" target="Oqu5rdw-iT1-wfg9vqZg-352">
          <mxGeometry width="50" height="50" relative="1" as="geometry">
            <mxPoint x="1407.5" y="380" as="sourcePoint" />
            <mxPoint x="1432.5" y="330" as="targetPoint" />
          </mxGeometry>
        </mxCell>
        <mxCell id="Oqu5rdw-iT1-wfg9vqZg-366" value="" style="endArrow=none;html=1;rounded=0;entryX=0.5;entryY=1;entryDx=0;entryDy=0;exitX=1;exitY=0.75;exitDx=0;exitDy=0;" edge="1" parent="1" source="Oqu5rdw-iT1-wfg9vqZg-343">
          <mxGeometry width="50" height="50" relative="1" as="geometry">
            <mxPoint x="1515" y="470" as="sourcePoint" />
            <mxPoint x="1540" y="420" as="targetPoint" />
          </mxGeometry>
        </mxCell>
        <mxCell id="Oqu5rdw-iT1-wfg9vqZg-367" value="" style="endArrow=none;html=1;rounded=0;entryX=0;entryY=0.25;entryDx=0;entryDy=0;" edge="1" parent="1" target="Oqu5rdw-iT1-wfg9vqZg-342">
          <mxGeometry width="50" height="50" relative="1" as="geometry">
            <mxPoint x="1020" y="570" as="sourcePoint" />
            <mxPoint x="1045" y="510" as="targetPoint" />
          </mxGeometry>
        </mxCell>
        <mxCell id="Oqu5rdw-iT1-wfg9vqZg-368" value="" style="endArrow=none;html=1;rounded=0;entryX=0;entryY=1;entryDx=0;entryDy=0;" edge="1" parent="1" target="Oqu5rdw-iT1-wfg9vqZg-342">
          <mxGeometry width="50" height="50" relative="1" as="geometry">
            <mxPoint x="1020" y="660" as="sourcePoint" />
            <mxPoint x="1045" y="610" as="targetPoint" />
          </mxGeometry>
        </mxCell>
        <mxCell id="Oqu5rdw-iT1-wfg9vqZg-369" value="" style="endArrow=none;html=1;rounded=0;entryX=0.5;entryY=1;entryDx=0;entryDy=0;" edge="1" parent="1" target="Oqu5rdw-iT1-wfg9vqZg-342">
          <mxGeometry width="50" height="50" relative="1" as="geometry">
            <mxPoint x="1130" y="690" as="sourcePoint" />
            <mxPoint x="1130" y="620" as="targetPoint" />
          </mxGeometry>
        </mxCell>
        <mxCell id="Oqu5rdw-iT1-wfg9vqZg-370" value="" style="endArrow=none;html=1;rounded=0;entryX=0.5;entryY=1;entryDx=0;entryDy=0;exitX=0.5;exitY=0;exitDx=0;exitDy=0;" edge="1" parent="1" source="Oqu5rdw-iT1-wfg9vqZg-353">
          <mxGeometry width="50" height="50" relative="1" as="geometry">
            <mxPoint x="1417.5" y="660" as="sourcePoint" />
            <mxPoint x="1442.5" y="610" as="targetPoint" />
          </mxGeometry>
        </mxCell>
        <mxCell id="Oqu5rdw-iT1-wfg9vqZg-371" value="" style="endArrow=none;html=1;rounded=0;entryX=0;entryY=0.5;entryDx=0;entryDy=0;" edge="1" parent="1" target="Oqu5rdw-iT1-wfg9vqZg-348">
          <mxGeometry width="50" height="50" relative="1" as="geometry">
            <mxPoint x="1480" y="580" as="sourcePoint" />
            <mxPoint x="1505" y="530" as="targetPoint" />
          </mxGeometry>
        </mxCell>
        <mxCell id="Oqu5rdw-iT1-wfg9vqZg-372" value="" style="endArrow=none;html=1;rounded=0;entryX=1;entryY=1;entryDx=0;entryDy=0;exitX=0;exitY=0.5;exitDx=0;exitDy=0;" edge="1" parent="1" source="Oqu5rdw-iT1-wfg9vqZg-350" target="Oqu5rdw-iT1-wfg9vqZg-341">
          <mxGeometry width="50" height="50" relative="1" as="geometry">
            <mxPoint x="1440" y="680" as="sourcePoint" />
            <mxPoint x="1452.5" y="620" as="targetPoint" />
          </mxGeometry>
        </mxCell>
        <mxCell id="Oqu5rdw-iT1-wfg9vqZg-377" value="" style="endArrow=none;html=1;rounded=0;entryX=0;entryY=0.5;entryDx=0;entryDy=0;" edge="1" parent="1" source="Oqu5rdw-iT1-wfg9vqZg-385" target="Oqu5rdw-iT1-wfg9vqZg-343">
          <mxGeometry relative="1" as="geometry">
            <mxPoint x="1180" y="400" as="sourcePoint" />
            <mxPoint x="1370" y="400" as="targetPoint" />
          </mxGeometry>
        </mxCell>
        <mxCell id="Oqu5rdw-iT1-wfg9vqZg-378" value="N" style="resizable=0;html=1;whiteSpace=wrap;align=right;verticalAlign=bottom;" connectable="0" vertex="1" parent="Oqu5rdw-iT1-wfg9vqZg-377">
          <mxGeometry x="1" relative="1" as="geometry">
            <mxPoint x="-5" as="offset" />
          </mxGeometry>
        </mxCell>
        <mxCell id="Oqu5rdw-iT1-wfg9vqZg-381" value="" style="endArrow=none;html=1;rounded=0;exitX=0.5;exitY=0;exitDx=0;exitDy=0;entryX=0.5;entryY=1;entryDx=0;entryDy=0;" edge="1" parent="1" source="Oqu5rdw-iT1-wfg9vqZg-341" target="Oqu5rdw-iT1-wfg9vqZg-343">
          <mxGeometry relative="1" as="geometry">
            <mxPoint x="1235" y="454.17" as="sourcePoint" />
            <mxPoint x="1430" y="450" as="targetPoint" />
          </mxGeometry>
        </mxCell>
        <mxCell id="Oqu5rdw-iT1-wfg9vqZg-382" value="" style="resizable=0;html=1;whiteSpace=wrap;align=right;verticalAlign=bottom;" connectable="0" vertex="1" parent="Oqu5rdw-iT1-wfg9vqZg-381">
          <mxGeometry x="1" relative="1" as="geometry" />
        </mxCell>
        <mxCell id="Oqu5rdw-iT1-wfg9vqZg-383" value="Includes" style="shape=rhombus;perimeter=rhombusPerimeter;whiteSpace=wrap;html=1;align=center;" vertex="1" parent="1">
          <mxGeometry x="1395" y="475" width="70" height="40" as="geometry" />
        </mxCell>
        <mxCell id="Oqu5rdw-iT1-wfg9vqZg-386" value="" style="endArrow=none;html=1;rounded=0;entryX=0;entryY=0.5;entryDx=0;entryDy=0;" edge="1" parent="1" target="Oqu5rdw-iT1-wfg9vqZg-385">
          <mxGeometry relative="1" as="geometry">
            <mxPoint x="1180" y="400" as="sourcePoint" />
            <mxPoint x="1380" y="400" as="targetPoint" />
          </mxGeometry>
        </mxCell>
        <mxCell id="Oqu5rdw-iT1-wfg9vqZg-385" value="EnrollsIn" style="shape=rhombus;perimeter=rhombusPerimeter;whiteSpace=wrap;html=1;align=center;" vertex="1" parent="1">
          <mxGeometry x="1260" y="380" width="70" height="40" as="geometry" />
        </mxCell>
        <mxCell id="Oqu5rdw-iT1-wfg9vqZg-389" value="" style="endArrow=none;html=1;rounded=0;entryX=0.5;entryY=1;entryDx=0;entryDy=0;exitX=0.5;exitY=0;exitDx=0;exitDy=0;" edge="1" parent="1" source="Oqu5rdw-iT1-wfg9vqZg-342" target="Oqu5rdw-iT1-wfg9vqZg-340">
          <mxGeometry relative="1" as="geometry">
            <mxPoint x="1130" y="560" as="sourcePoint" />
            <mxPoint x="950" y="470" as="targetPoint" />
          </mxGeometry>
        </mxCell>
        <mxCell id="Oqu5rdw-iT1-wfg9vqZg-390" value="MakesPayment" style="shape=rhombus;perimeter=rhombusPerimeter;whiteSpace=wrap;html=1;align=center;" vertex="1" parent="1">
          <mxGeometry x="1072.5" y="480" width="115" height="40" as="geometry" />
        </mxCell>
        <mxCell id="Oqu5rdw-iT1-wfg9vqZg-391" value="N" style="text;html=1;align=center;verticalAlign=middle;resizable=0;points=[];autosize=1;strokeColor=none;fillColor=none;" vertex="1" parent="1">
          <mxGeometry x="1405" y="418" width="30" height="30" as="geometry" />
        </mxCell>
      </root>
    </mxGraphModel>
  </diagram>
</mxfile>
